<svg width="23" height="23" viewBox="0 0 23 23" fill="none" xmlns="http://www.w3.org/2000/svg">
<path d="M20.125 20.125H16.2917V13.6562C16.2917 12.6418 15.1533 11.7931 14.1388 11.7931C13.1243 11.7931 12.4583 12.6418 12.4583 13.6562V20.125H8.62501V8.625H12.4583V10.5417C13.093 9.51488 14.7166 8.85238 15.8365 8.85238C18.205 8.85238 20.125 10.8087 20.125 13.1771V20.125ZM6.70833 20.125H2.875V8.625H6.70833V20.125ZM4.79168 2.875C5.85022 2.875 6.70834 3.73312 6.70834 4.79167C6.70834 5.85021 5.85022 6.70833 4.79168 6.70833C3.73313 6.70833 2.87501 5.85021 2.87501 4.79167C2.87501 3.73312 3.73313 2.875 4.79168 2.875Z" fill="white"/>
</svg>
